<svg width="118" height="24" viewBox="0 0 118 24" fill="none" xmlns="http://www.w3.org/2000/svg">
<path d="M112.932 2.94655C112.932 1.61514 114.008 0.52383 115.326 0.52383C115.962 0.52383 116.555 0.785745 117.016 1.22227C117.477 1.68062 117.719 2.29176 117.719 2.92472C117.719 3.55768 117.477 4.16882 117.016 4.62717C116.555 5.08552 115.962 5.34743 115.326 5.34743C114.008 5.34743 112.932 4.27795 112.932 2.94655ZM112.734 2.94655C112.734 4.38708 113.898 5.5657 115.347 5.5657C116.05 5.5657 116.687 5.30378 117.17 4.80178C117.653 4.29977 117.939 3.64499 117.939 2.94655C117.939 2.2481 117.675 1.59332 117.17 1.09131C116.665 0.589309 116.028 0.327394 115.347 0.327394C113.898 0.327394 112.734 1.50601 112.734 2.94655ZM114.359 4.49621H114.733V3.27394H115.567C115.699 3.27394 115.809 3.27394 115.896 3.31759C116.006 3.38307 116.072 3.51403 116.094 3.68864L116.138 4.16882V4.38708C116.16 4.43073 116.16 4.45256 116.182 4.47438H116.643V4.40891C116.577 4.38708 116.555 4.3216 116.533 4.23429C116.511 4.19064 116.511 4.10334 116.511 3.99421L116.489 3.62316C116.489 3.44855 116.445 3.33942 116.401 3.27394C116.336 3.20846 116.248 3.14298 116.138 3.09933C116.27 3.03385 116.358 2.94655 116.423 2.83741C116.489 2.72828 116.511 2.59733 116.511 2.42272C116.511 2.09532 116.38 1.87706 116.138 1.7461C116.006 1.68062 115.831 1.6588 115.633 1.6588H114.381L114.359 4.49621ZM114.711 2.94655V1.96436H115.589C115.721 1.96436 115.831 1.98619 115.896 2.02984C116.028 2.09532 116.094 2.2481 116.094 2.44454C116.094 2.64098 116.05 2.77194 115.94 2.83741C115.853 2.90289 115.721 2.94655 115.545 2.94655H114.711ZM10.6718 6.54788L0 23.2231H7.29019L17.5667 7.28997L10.6718 6.54788ZM54.6106 6.17683V0H33.8599C31.0272 0.17461 29.7976 1.52784 28.8753 2.48819C27.8872 3.51403 27.3382 5.67483 27.3382 5.67483V0.0436525H16.2931C15.4587 0.0436525 14.6682 0.392873 14.0753 1.22227C13.4605 2.02984 10.9353 6.17683 10.9353 6.17683H54.6106ZM111.044 6.17683V0H88.8437C86.033 0.17461 84.7814 1.52784 83.8591 2.48819C82.871 3.51403 82.3221 5.67483 82.3221 5.67483V6.17683H111.044ZM61.9007 0.0218263H55.6865V6.17683H61.9007V0.0218263ZM82.2562 0.0218263H76.0639V6.17683H82.2562V0.0218263ZM82.2562 8.40311L76.1517 8.03206V15.1693C76.1517 15.1693 76.1298 17.2209 74.1316 17.2209H63.6794C63.6794 17.2209 61.9007 17.0681 61.9007 15.1911V7.07171L55.7524 6.63518V17.5701C56.7405 22.8084 61.5055 23.2231 61.5055 23.2231C61.5055 23.2231 61.9886 23.245 62.0764 23.2668H76.2396C76.2396 23.2668 82.3001 22.7866 82.3001 16.9808L82.2562 8.40311ZM21.0142 23.2231H50.0432C55.0936 22.2191 55.6206 17.6356 55.6206 17.6356C55.8622 16.2824 55.7304 15.1693 55.7304 15.1693C55.5767 14.2525 53.82 10.1929 50.0432 9.84364C47.7815 9.62538 27.6456 8.03206 27.6456 8.03206C28.0409 10.0401 28.9412 11.0659 29.556 11.6334C30.9614 12.9648 33.1791 13.3577 33.1791 13.3577L48.7037 14.6454C49.1868 14.6672 50.0871 14.7982 50.0652 15.9768C50.0652 16.1296 49.9334 17.1554 48.7916 17.1554H27.0747V7.98841L21.0362 7.55189C21.0142 7.55189 21.0142 23.2231 21.0142 23.2231ZM82.3001 23.2668H104.522C110.099 22.9394 110.89 17.6793 110.89 17.6793C111.088 16.3042 110.934 15.1693 110.934 15.1693C110.78 13.9252 109.002 10.171 105.203 9.79999C102.963 9.58173 82.6954 8.40311 82.6954 8.40311C83.2882 10.4766 84.1007 11.1096 84.7155 11.677C86.1209 13.0303 88.2069 13.3358 88.2069 13.3358C88.7339 13.3795 103.885 14.6454 103.885 14.6454C104.368 14.6672 105.356 14.7109 105.356 15.8895C105.356 16.2387 105.181 16.6098 104.961 16.8062C104.961 16.8062 104.434 17.09 103.929 17.09H82.366L82.3001 23.2668Z" fill="white"/>
</svg>
