<svg width="118" height="26" viewBox="0 0 118 26" fill="none" xmlns="http://www.w3.org/2000/svg">
<path d="M49.2794 13.1645V13.1632C49.0218 12.2106 48.7786 11.3639 48.5593 10.7269C47.712 8.28711 46.8321 5.59964 44.2216 5.57617C44.2216 5.57617 42.7217 5.31713 41.1529 5.54847C41.1529 5.54847 36.1956 6.50174 33.3356 8.59901C35.8141 8.59901 39.0554 8.21796 40.1994 8.98049C41.6839 9.97013 42.324 10.9306 42.324 13.0315C42.324 13.0771 42.3225 13.1211 42.3195 13.1643C42.2918 13.5656 42.1449 13.8534 42.0529 14.2516H41.2396C40.4599 13.6415 39.8042 13.4404 38.7995 13.1672C38.7952 13.1656 38.7905 13.1647 38.7858 13.1647V13.1634C37.0634 12.6961 35.8958 12.5958 34.2041 13.1638H34.2009C34.1975 13.1647 34.1941 13.1662 34.1907 13.1672C31.8695 13.9486 30.0364 15.4489 29.4792 17.5897C29.3436 18.1103 29.2838 18.6701 29.3108 19.267C29.443 22.1482 31.4532 23.9158 34.1907 24.8245C35.8966 25.3908 37.0343 25.163 38.7995 24.8245C41.4934 24.3079 42.5612 22.7232 45.0347 21.5711C45.0347 22.8251 45.0687 24.8245 45.0687 24.8245H52.3547V22.9266C51.7865 22.2914 51.111 20.0571 50.4464 17.5897C50.0449 16.0987 49.6469 14.5229 49.2794 13.1645ZM43.6797 19.2668C43.5221 21.0264 41.9205 22.1922 40.1552 22.1133C38.3997 22.0349 36.901 20.7528 36.9019 18.9957C36.9 18.5059 37.0198 18.0233 37.2506 17.5912C37.771 16.6204 38.8188 15.9725 40.0197 15.8777C41.3519 15.7733 42.663 16.4973 43.2967 17.5895C43.5853 18.0864 43.7336 18.6601 43.6797 19.2668ZM95.6197 13.1645C95.0035 10.4021 93.765 8.47594 91.1226 7.20252C89.9362 6.66033 89.4 5.98514 88.1401 5.57596C86.0286 4.88998 84.5757 4.94411 82.4467 5.57596C78.6017 6.71743 76.3188 9.32665 75.5027 13.1645V13.1653C75.4643 13.3458 75.4294 13.5271 75.3983 13.709C75.1652 15.0636 75.1616 15.8794 75.3983 17.2334C75.4196 17.3544 75.4414 17.4724 75.4642 17.5895C75.8282 19.4392 76.4042 20.5927 77.6801 22.096C80.4459 25.3548 84.0024 26.4394 88.1401 25.3666C92.2221 24.3079 94.8318 21.6612 95.6633 17.5897H95.6635C95.6872 17.4719 95.71 17.3533 95.7309 17.2336C95.9684 15.8798 95.9845 15.0602 95.7309 13.7092C95.697 13.527 95.6599 13.3454 95.6197 13.1645ZM88.1266 24.1935C85.5053 25.104 84.6916 21.3184 83.4613 17.5889C83.4038 17.4138 83.3444 17.2383 83.2845 17.064C83.1361 16.6297 82.5209 14.9947 82.0489 13.1649H82.0487C81.3701 10.5347 80.9876 7.50533 82.7127 7.07416C85.1513 6.46431 86.2501 10.0458 87.1179 13.1649C87.3357 13.9448 87.5387 14.698 87.7451 15.348C88.0105 16.0824 88.2822 16.8412 88.5279 17.5914H88.5283C89.519 20.6183 90.0893 23.5115 88.1266 24.1935ZM71.4433 5.57617C70.3204 5.27272 69.6142 5.42201 68.4615 5.57617C66.2525 5.87137 65.4114 7.74492 63.1749 7.74492C61.8531 7.74492 61.8292 6.03673 60.5991 5.57617C59.3122 5.09404 57.0749 5.57617 57.0749 5.57617C55.0977 6.60239 53.6522 7.30444 51.653 8.55799C53.144 8.55799 55.4486 8.25687 55.4486 9.92466V24.8245H62.2259V10.9983C62.2259 9.91367 63.1749 9.10039 64.2593 9.10039C65.3437 9.10039 66.2923 9.91367 66.2923 10.9983V24.8245H73.0701V7.20273C72.9091 6.49074 72.3511 5.82125 71.4433 5.57617ZM116.343 5.57617C115.22 5.27272 114.513 5.42201 113.361 5.57617C111.152 5.87137 110.311 7.74492 108.074 7.74492C106.753 7.74492 106.729 6.03673 105.499 5.57617C104.212 5.09404 101.975 5.57617 101.975 5.57617C99.9974 6.60239 98.5516 7.30444 96.552 8.55799C98.0433 8.55799 100.348 8.25687 100.348 9.92466V24.8245H107.125V10.9983C107.125 9.91367 108.074 9.10039 109.158 9.10039C110.243 9.10039 111.192 9.91367 111.192 10.9983V24.8245H117.969V7.20273C117.809 6.49074 117.251 5.82125 116.343 5.57617ZM28.498 7.14754C27.3478 5.6265 26.5384 4.84811 24.9736 3.75887C22.4751 2.01981 20.664 1.50067 17.6538 1.04793C15.458 0.717628 14.1575 0.724394 11.9606 1.04793C9.77623 1.36914 8.46115 1.58927 6.53833 2.67449C2.36112 5.03187 0.0997515 8.31586 0.0318723 13.1118C0.0314494 13.1289 0.0314494 13.1461 0.031238 13.1636V13.1643C0.0155898 14.7931 0.342298 16.2691 0.940523 17.5893H0.941157C2.76205 21.6024 7.09786 24.1658 11.9604 25.1755C14.3417 25.6701 15.7961 25.5688 18.1956 25.1755C20.7363 24.7589 22.2531 24.3798 24.4309 23.0067C25.9831 22.0279 26.7947 21.31 27.9554 19.8892L27.1423 18.9403C26.0753 20.2006 25.3212 20.8293 23.889 21.6511C21.798 22.8515 20.3309 23.4299 17.9247 23.2778C14.2298 23.0444 11.2632 20.7574 9.85934 17.5893H9.85892C9.29051 16.3059 8.97839 14.8777 8.97839 13.3825C8.97839 13.3089 8.97924 13.2357 8.98072 13.1643V13.1624C9.09787 7.50301 13.7285 2.94516 19.4159 2.94516C21.5508 2.94516 23.1774 3.41968 24.4314 5.11391C22.432 7.58759 20.0937 12.1628 20.0937 12.1628L28.498 7.14754Z" fill="white"/>
</svg>
