<svg width="17" height="13" viewBox="0 0 17 13" fill="none" xmlns="http://www.w3.org/2000/svg" xmlns:xlink="http://www.w3.org/1999/xlink">
<path d="M5.96425 8.50319L4.89489 10.1993L4.6379 10.6068L3.94367 11.7077C3.74332 12.0257 3.46928 12.2536 3.16296 12.3973C2.83777 12.5497 2.47908 12.6039 2.13866 12.5667C1.82626 12.532 1.51933 12.404 1.26661 12.2255L1.26478 12.228C0.996224 12.0379 0.773339 11.7747 0.651543 11.4859C0.643018 11.4695 0.555934 11.2593 0.555934 11.2502C0.372632 10.775 0.233786 10.2852 0.14183 9.78621C0.0474391 9.28055 -6.10352e-05 8.77429 -6.10352e-05 8.27473C-6.10352e-05 5.99013 0.926192 3.9206 2.42305 2.42313C3.91992 0.925654 5.988 -0.000976562 8.27227 -0.000976562C10.5559 -0.000976562 12.6246 0.925654 14.1215 2.42313C15.6183 3.9206 16.5446 5.99013 16.5446 8.27473C16.5446 8.77429 16.4965 9.28055 16.4027 9.78621C16.3101 10.2852 16.1713 10.7756 15.988 11.2502C15.988 11.2593 15.9009 11.4695 15.8924 11.4859C15.7706 11.7747 15.5477 12.0379 15.2791 12.228L15.2779 12.2255C15.0252 12.404 14.7183 12.532 14.4059 12.5661C14.0655 12.6039 13.7068 12.5503 13.3816 12.3973C13.0753 12.2536 12.8012 12.0257 12.6009 11.7077L8.76554 5.62521L8.71621 5.57891C8.59746 5.48021 8.43669 5.43087 8.27166 5.43087C8.10663 5.43087 7.94647 5.48021 7.82711 5.57891L7.77778 5.62521L5.96425 8.50319ZM10.1564 4.66081L14.032 10.8073C14.0502 10.8359 14.0728 10.856 14.0971 10.867C14.1318 10.8834 14.1763 10.8883 14.2207 10.884H14.2238C14.2469 10.8816 14.2768 10.867 14.306 10.8463V10.8426C14.3249 10.8292 14.331 10.8353 14.3346 10.8323L14.412 10.6367C14.5575 10.2626 14.6671 9.87516 14.7402 9.48038C14.8121 9.09291 14.8492 8.689 14.8492 8.27412C14.8492 6.45741 14.113 4.8119 12.923 3.62147C11.7331 2.43105 10.0888 1.69449 8.27227 1.69449C6.4563 1.69449 4.81146 2.43105 3.62152 3.62147C2.43158 4.8119 1.69533 6.4568 1.69533 8.27412C1.69533 8.689 1.73187 9.09291 1.80434 9.48038C1.87741 9.87455 1.98703 10.262 2.13136 10.6367L2.20991 10.8316C2.21357 10.8341 2.21966 10.8286 2.23853 10.842V10.8457C2.26777 10.8664 2.29761 10.881 2.32075 10.8834H2.32379C2.36886 10.8883 2.4127 10.8828 2.44741 10.8664C2.47177 10.8554 2.49491 10.8353 2.51257 10.8067L6.42342 4.60354L6.45082 4.57064C6.54156 4.46098 6.64143 4.36168 6.748 4.27334C7.18159 3.9139 7.72967 3.73418 8.27227 3.73418C8.81487 3.73418 9.36234 3.9139 9.79654 4.27334C9.90311 4.36107 10.003 4.46037 10.0937 4.57064L10.1211 4.60354L10.1564 4.66081Z" fill="white" />
</svg>
