<svg width="330" height="232" viewBox="0 0 330 232" fill="none" xmlns="http://www.w3.org/2000/svg" xmlns:xlink="http://www.w3.org/1999/xlink">
<path d="M325.895 90.9798V23.6729H223.894L219.955 27.7777L165.37 27.9588L169.158 23.6729H165.158H161.159L164.962 27.9588L110.377 27.7777L106.438 23.6729H4.42169V90.9798L10.3224 85.894V158.136L4.42169 164.187V229.336H165.158H325.895V164.187L319.995 158.136V85.894L325.895 90.9798Z" fill="url(#pattern0_1_597)"/>
<path d="M318.591 29.1813H11.741V223.843H318.591V29.1813Z" fill="url(#paint0_radial_1_597)"/>
<path d="M318.591 29.1813H11.741V223.843H318.591V29.1813Z" fill="url(#pattern1_1_597)"/>
<path d="M323.224 92.1418V97.2125L330 103.943V98.9178L323.224 92.1418Z" fill="url(#pattern2_1_597)"/>
<path d="M323.224 100.729V105.799L330 112.53V107.505L323.224 100.729Z" fill="url(#pattern3_1_597)"/>
<path d="M323.224 109.316V114.401L330 121.132V116.107L323.224 109.316Z" fill="url(#pattern4_1_597)"/>
<path d="M323.224 117.918V122.988L330 129.719V124.694L323.224 117.918Z" fill="url(#pattern5_1_597)"/>
<path d="M323.224 126.505V131.575L330 138.306V133.281L323.224 126.505Z" fill="url(#pattern6_1_597)"/>
<path d="M323.224 135.107V140.177L330 146.908V141.883L323.224 135.107Z" fill="url(#pattern7_1_597)"/>
<path d="M323.224 143.693V148.764L330 155.495V150.469L323.224 143.693Z" fill="url(#pattern8_1_597)"/>
<path d="M323.224 152.28V157.366L330 164.097V159.071L323.224 152.28Z" fill="url(#pattern9_1_597)"/>
<path opacity="0.2" d="M312.102 35.0516H306.02V36.3797H312.102V35.0516Z" fill="#0500E0"/>
<path opacity="0.2533" d="M312.102 38.0094H306.02V39.3374H312.102V38.0094Z" fill="#1611E2"/>
<path opacity="0.3067" d="M312.102 40.9823H306.02V42.3103H312.102V40.9823Z" fill="#2622E4"/>
<path opacity="0.36" d="M312.102 43.9403H306.02V45.2683H312.102V43.9403Z" fill="#3733E6"/>
<path opacity="0.4133" d="M312.102 46.8981H306.02V48.2261H312.102V46.8981Z" fill="#4844E8"/>
<path opacity="0.4667" d="M312.102 49.8711H306.02V51.1991H312.102V49.8711Z" fill="#5855EA"/>
<path opacity="0.52" d="M312.102 52.829H306.02V54.157H312.102V52.829Z" fill="#6966EC"/>
<path opacity="0.5733" d="M312.102 55.8019H306.02V57.1299H312.102V55.8019Z" fill="#7A77EE"/>
<path opacity="0.6267" d="M312.102 58.7599H306.02V60.0879H312.102V58.7599Z" fill="#8A88F1"/>
<path opacity="0.68" d="M312.102 61.7328H306.02V63.0608H312.102V61.7328Z" fill="#9B99F3"/>
<path opacity="0.7333" d="M312.102 64.6908H306.02V66.0188H312.102V64.6908Z" fill="#ACAAF5"/>
<path opacity="0.7867" d="M312.102 67.6486H306.02V68.9766H312.102V67.6486Z" fill="#BCBBF7"/>
<path opacity="0.84" d="M312.102 70.6216H306.02V71.9496H312.102V70.6216Z" fill="#CDCCF9"/>
<path opacity="0.8933" d="M312.102 73.5795H306.02V74.9075H312.102V73.5795Z" fill="#DEDDFB"/>
<path opacity="0.9467" d="M312.102 76.5525H306.02V77.8805H312.102V76.5525Z" fill="#EEEEFD"/>
<path d="M312.102 79.5103H306.02V80.8383H312.102V79.5103Z" fill="white"/>
<path d="M6.77596 92.1418V97.2125L0 103.943V98.9178L6.77596 92.1418Z" fill="url(#pattern10_1_597)"/>
<path d="M6.77596 100.729V105.799L0 112.53V107.505L6.77596 100.729Z" fill="url(#pattern11_1_597)"/>
<path d="M6.77596 109.316V114.401L0 121.132V116.107L6.77596 109.316Z" fill="url(#pattern12_1_597)"/>
<path d="M6.77596 117.918V122.988L0 129.719V124.694L6.77596 117.918Z" fill="url(#pattern13_1_597)"/>
<path d="M6.77596 126.505V131.575L0 138.306V133.281L6.77596 126.505Z" fill="url(#pattern14_1_597)"/>
<path d="M6.77596 135.107V140.177L0 146.908V141.883L6.77596 135.107Z" fill="url(#pattern15_1_597)"/>
<path d="M6.77596 143.693V148.764L0 155.495V150.469L6.77596 143.693Z" fill="url(#pattern16_1_597)"/>
<path d="M6.77596 152.28V157.366L0 164.097V159.071L6.77596 152.28Z" fill="url(#pattern17_1_597)"/>
<path d="M19.2263 182.946V83.2379H26.0626" stroke="#EC29FC" stroke-width="0.316463" stroke-miterlimit="10"/>
<path d="M19.2263 217.791H89.2798L94.3806 205.99" stroke="#EC29FC" stroke-width="0.346193" stroke-miterlimit="10"/>
<path d="M19.2263 185.013V186.16" stroke="#EC29FC" stroke-width="0.404747" stroke-miterlimit="10"/>
<path d="M19.2263 188.318V189.465" stroke="#EC29FC" stroke-width="0.404747" stroke-miterlimit="10"/>
<path d="M19.2263 191.623V192.77" stroke="#EC29FC" stroke-width="0.404747" stroke-miterlimit="10"/>
<path d="M19.2263 194.928V196.075" stroke="#EC29FC" stroke-width="0.404747" stroke-miterlimit="10"/>
<path d="M19.2263 198.233V199.38" stroke="#EC29FC" stroke-width="0.404747" stroke-miterlimit="10"/>
<path d="M19.2263 201.538V202.685" stroke="#EC29FC" stroke-width="0.404747" stroke-miterlimit="10"/>
<path d="M19.2263 204.843V205.99" stroke="#EC29FC" stroke-width="0.404747" stroke-miterlimit="10"/>
<path d="M19.2263 208.148V209.31" stroke="#EC29FC" stroke-width="0.404747" stroke-miterlimit="10"/>
<path d="M19.2263 211.453V212.615" stroke="#EC29FC" stroke-width="0.404747" stroke-miterlimit="10"/>
<path d="M19.2263 214.758V215.92" stroke="#EC29FC" stroke-width="0.404747" stroke-miterlimit="10"/>
<path d="M308.887 182.946V83.2379H302.036" stroke="#06F0F6" stroke-width="0.316463" stroke-miterlimit="10"/>
<path d="M308.887 217.791H238.834L233.643 205.99" stroke="#06F0F6" stroke-width="0.346193" stroke-miterlimit="10"/>
<path d="M308.887 185.013V186.16" stroke="#06F0F6" stroke-width="0.404747" stroke-miterlimit="10"/>
<path d="M308.887 188.318V189.465" stroke="#06F0F6" stroke-width="0.404747" stroke-miterlimit="10"/>
<path d="M308.887 191.623V192.77" stroke="#06F0F6" stroke-width="0.404747" stroke-miterlimit="10"/>
<path d="M308.887 194.928V196.075" stroke="#06F0F6" stroke-width="0.404747" stroke-miterlimit="10"/>
<path d="M308.887 198.233V199.38" stroke="#06F0F6" stroke-width="0.404747" stroke-miterlimit="10"/>
<path d="M308.887 201.538V202.685" stroke="#06F0F6" stroke-width="0.404747" stroke-miterlimit="10"/>
<path d="M308.887 204.843V205.99" stroke="#06F0F6" stroke-width="0.404747" stroke-miterlimit="10"/>
<path d="M308.887 208.148V209.31" stroke="#06F0F6" stroke-width="0.404747" stroke-miterlimit="10"/>
<path d="M308.887 211.453V212.615" stroke="#06F0F6" stroke-width="0.404747" stroke-miterlimit="10"/>
<path d="M308.887 214.758V215.92" stroke="#06F0F6" stroke-width="0.404747" stroke-miterlimit="10"/>
<path d="M195.552 35.0516L188.988 42.0087H164.374H139.76L133.21 35.0516H26.0626V35.3987H133.059L139.609 42.3558H164.374H189.138L195.688 35.3987H302.685V35.0516H195.552Z" fill="url(#paint1_linear_1_597)"/>
<path d="M26.0626 38.7036V40.4542" stroke="#06F0F6" stroke-width="0.280546" stroke-miterlimit="10"/>
<path d="M26.0626 43.2764V45.0269" stroke="#20DAF7" stroke-width="0.280546" stroke-miterlimit="10"/>
<path d="M26.0626 47.8489V49.6145" stroke="#39C4F7" stroke-width="0.280546" stroke-miterlimit="10"/>
<path d="M26.0626 52.4368V54.1873" stroke="#53AEF8" stroke-width="0.280546" stroke-miterlimit="10"/>
<path d="M26.0626 57.0093V58.7599" stroke="#6C98F9" stroke-width="0.280546" stroke-miterlimit="10"/>
<path d="M26.0626 61.5819V63.3476" stroke="#8681F9" stroke-width="0.280546" stroke-miterlimit="10"/>
<path d="M26.0626 66.1697V67.9203" stroke="#9F6BFA" stroke-width="0.280546" stroke-miterlimit="10"/>
<path d="M26.0626 70.7423V72.4929" stroke="#B955FB" stroke-width="0.280546" stroke-miterlimit="10"/>
<path d="M26.0626 75.3149V77.0806" stroke="#D23FFB" stroke-width="0.280546" stroke-miterlimit="10"/>
<path d="M26.0626 79.9026V81.6532" stroke="#EC29FC" stroke-width="0.280546" stroke-miterlimit="10"/>
<path d="M302.036 38.7036V40.4542" stroke="#06F0F6" stroke-width="0.280546" stroke-miterlimit="10"/>
<path d="M302.036 43.2764V45.0269" stroke="#20DAF7" stroke-width="0.280546" stroke-miterlimit="10"/>
<path d="M302.036 47.8489V49.6145" stroke="#39C4F7" stroke-width="0.280546" stroke-miterlimit="10"/>
<path d="M302.036 52.4368V54.1873" stroke="#53AEF8" stroke-width="0.280546" stroke-miterlimit="10"/>
<path d="M302.036 57.0093V58.7599" stroke="#6C98F9" stroke-width="0.280546" stroke-miterlimit="10"/>
<path d="M302.036 61.5819V63.3476" stroke="#8681F9" stroke-width="0.280546" stroke-miterlimit="10"/>
<path d="M302.036 66.1697V67.9203" stroke="#9F6BFA" stroke-width="0.280546" stroke-miterlimit="10"/>
<path d="M302.036 70.7423V72.4929" stroke="#B955FB" stroke-width="0.280546" stroke-miterlimit="10"/>
<path d="M302.036 75.3149V77.0806" stroke="#D23FFB" stroke-width="0.280546" stroke-miterlimit="10"/>
<path d="M302.036 79.9026V81.6532" stroke="#EC29FC" stroke-width="0.280546" stroke-miterlimit="10"/>
<path d="M103.797 19.1454H109.17L116.293 26.3288H110.966L103.797 19.1454Z" fill="url(#pattern18_1_597)"/>
<path d="M112.898 19.1454H118.27L125.393 26.3288H120.066L112.898 19.1454Z" fill="url(#pattern19_1_597)"/>
<path d="M121.997 19.1454H127.37L134.493 26.3288H129.166L121.997 19.1454Z" fill="url(#pattern20_1_597)"/>
<path d="M131.082 19.1454H136.455L143.593 26.3288H138.266L131.082 19.1454Z" fill="url(#pattern21_1_597)"/>
<path d="M140.182 19.1454H145.555L152.678 26.3288H147.366L140.182 19.1454Z" fill="url(#pattern22_1_597)"/>
<path d="M149.282 19.1454H154.655L161.778 26.3288H156.451L149.282 19.1454Z" fill="url(#pattern23_1_597)"/>
<path d="M225.418 19.1454H220.045L212.922 26.3288H218.249L225.418 19.1454Z" fill="url(#pattern24_1_597)"/>
<path d="M216.318 19.1454H210.945L203.822 26.3288H209.149L216.318 19.1454Z" fill="url(#pattern25_1_597)"/>
<path d="M207.218 19.1454H201.86L194.722 26.3288H200.049L207.218 19.1454Z" fill="url(#pattern26_1_597)"/>
<path d="M198.133 19.1454H192.76L185.637 26.3288H190.949L198.133 19.1454Z" fill="url(#pattern27_1_597)"/>
<path d="M189.033 19.1454H183.66L176.537 26.3288H181.849L189.033 19.1454Z" fill="url(#pattern28_1_597)"/>
<path d="M179.933 19.1454H174.56L167.437 26.3288H172.764L179.933 19.1454Z" fill="url(#pattern29_1_597)"/>
<path opacity="0.2" d="M24.3119 35.0516H18.2302V36.3797H24.3119V35.0516Z" fill="#0500E0"/>
<path opacity="0.2533" d="M24.312 38.0094H18.2302V39.3374H24.312V38.0094Z" fill="#1611E2"/>
<path opacity="0.3067" d="M24.312 40.9823H18.2302V42.3103H24.312V40.9823Z" fill="#2622E4"/>
<path opacity="0.36" d="M24.312 43.9403H18.2302V45.2683H24.312V43.9403Z" fill="#3733E6"/>
<path opacity="0.4133" d="M24.312 46.8981H18.2302V48.2261H24.312V46.8981Z" fill="#4844E8"/>
<path opacity="0.4667" d="M24.312 49.8711H18.2302V51.1991H24.312V49.8711Z" fill="#5855EA"/>
<path opacity="0.52" d="M24.312 52.829H18.2302V54.157H24.312V52.829Z" fill="#6966EC"/>
<path opacity="0.5733" d="M24.312 55.8019H18.2302V57.1299H24.312V55.8019Z" fill="#7A77EE"/>
<path opacity="0.6267" d="M24.312 58.7599H18.2302V60.0879H24.312V58.7599Z" fill="#8A88F1"/>
<path opacity="0.68" d="M24.312 61.7328H18.2302V63.0608H24.312V61.7328Z" fill="#9B99F3"/>
<path opacity="0.7333" d="M24.312 64.6908H18.2302V66.0188H24.312V64.6908Z" fill="#ACAAF5"/>
<path opacity="0.7867" d="M24.312 67.6486H18.2302V68.9766H24.312V67.6486Z" fill="#BCBBF7"/>
<path opacity="0.84" d="M24.312 70.6216H18.2302V71.9496H24.312V70.6216Z" fill="#CDCCF9"/>
<path opacity="0.8933" d="M24.312 73.5795H18.2302V74.9075H24.312V73.5795Z" fill="#DEDDFB"/>
<path opacity="0.9467" d="M24.312 76.5525H18.2302V77.8805H24.312V76.5525Z" fill="#EEEEFD"/>
<path d="M24.312 79.5103H18.2302V80.8383H24.312V79.5103Z" fill="white"/>
<path d="M87.5291 229.336L96.4178 209.31H230.805L239.815 229.336H87.5291Z" fill="url(#paint2_linear_1_597)"/>
<path d="M91.7849 229.336L100.191 210.427H227.048L235.544 229.336H91.7849Z" fill="url(#pattern30_1_597)"/>
<path d="M232.571 205.99H230.805" stroke="#06F0F6" stroke-width="0.280546" stroke-miterlimit="10"/>
<path d="M228.089 205.99H226.338" stroke="#0EE9F6" stroke-width="0.280546" stroke-miterlimit="10"/>
<path d="M223.622 205.99H221.856" stroke="#15E3F6" stroke-width="0.280546" stroke-miterlimit="10"/>
<path d="M219.14 205.99H217.389" stroke="#1DDCF7" stroke-width="0.280546" stroke-miterlimit="10"/>
<path d="M214.673 205.99H212.907" stroke="#25D5F7" stroke-width="0.280546" stroke-miterlimit="10"/>
<path d="M210.191 205.99H208.44" stroke="#2CCFF7" stroke-width="0.280546" stroke-miterlimit="10"/>
<path d="M205.724 205.99H203.973" stroke="#34C8F7" stroke-width="0.280546" stroke-miterlimit="10"/>
<path d="M201.257 205.99H199.491" stroke="#3CC2F7" stroke-width="0.280546" stroke-miterlimit="10"/>
<path d="M196.775 205.99H195.024" stroke="#43BBF8" stroke-width="0.280546" stroke-miterlimit="10"/>
<path d="M192.308 205.99H190.542" stroke="#4BB4F8" stroke-width="0.280546" stroke-miterlimit="10"/>
<path d="M187.826 205.99H186.075" stroke="#53AEF8" stroke-width="0.280546" stroke-miterlimit="10"/>
<path d="M183.358 205.99H181.608" stroke="#5AA7F8" stroke-width="0.280546" stroke-miterlimit="10"/>
<path d="M178.892 205.99H177.126" stroke="#62A0F8" stroke-width="0.280546" stroke-miterlimit="10"/>
<path d="M174.409 205.99H172.659" stroke="#6A9AF9" stroke-width="0.280546" stroke-miterlimit="10"/>
<path d="M169.942 205.99H168.177" stroke="#7193F9" stroke-width="0.280546" stroke-miterlimit="10"/>
<path d="M165.46 205.99H163.71" stroke="#798CF9" stroke-width="0.280546" stroke-miterlimit="10"/>
<path d="M160.993 205.99H159.228" stroke="#8186F9" stroke-width="0.280546" stroke-miterlimit="10"/>
<path d="M156.511 205.99H154.761" stroke="#887FF9" stroke-width="0.280546" stroke-miterlimit="10"/>
<path d="M152.044 205.99H150.294" stroke="#9079FA" stroke-width="0.280546" stroke-miterlimit="10"/>
<path d="M147.577 205.99H145.812" stroke="#9872FA" stroke-width="0.280546" stroke-miterlimit="10"/>
<path d="M143.095 205.99H141.345" stroke="#9F6BFA" stroke-width="0.280546" stroke-miterlimit="10"/>
<path d="M138.628 205.99H136.862" stroke="#A765FA" stroke-width="0.280546" stroke-miterlimit="10"/>
<path d="M134.146 205.99H132.395" stroke="#AF5EFA" stroke-width="0.280546" stroke-miterlimit="10"/>
<path d="M129.679 205.99H127.928" stroke="#B657FB" stroke-width="0.280546" stroke-miterlimit="10"/>
<path d="M125.197 205.99H123.446" stroke="#BE51FB" stroke-width="0.280546" stroke-miterlimit="10"/>
<path d="M120.73 205.99H118.979" stroke="#C64AFB" stroke-width="0.280546" stroke-miterlimit="10"/>
<path d="M116.263 205.99H114.497" stroke="#CD44FB" stroke-width="0.280546" stroke-miterlimit="10"/>
<path d="M111.781 205.99H110.03" stroke="#D53DFB" stroke-width="0.280546" stroke-miterlimit="10"/>
<path d="M107.314 205.99H105.548" stroke="#DD36FC" stroke-width="0.280546" stroke-miterlimit="10"/>
<path d="M102.832 205.99H101.081" stroke="#E430FC" stroke-width="0.280546" stroke-miterlimit="10"/>
<path d="M98.3647 205.99H96.6141" stroke="#EC29FC" stroke-width="0.280546" stroke-miterlimit="10"/>
<path d="M11.741 174.314C10.8053 174.314 10.0356 152.688 10.0356 126.022C10.0356 99.3554 10.8053 77.7448 11.741 77.7448C12.6766 77.7448 13.4463 99.3554 13.4463 126.022C13.4463 152.703 12.6766 174.314 11.741 174.314Z" fill="url(#paint3_radial_1_597)"/>
<path d="M318.591 89.5613C317.64 89.5613 316.871 75.4057 316.871 57.9451C316.871 40.4846 317.64 26.329 318.591 26.329C319.542 26.329 320.311 40.4846 320.311 57.9451C320.311 75.4057 319.542 89.5613 318.591 89.5613Z" fill="url(#paint4_radial_1_597)"/>
<path d="M279.55 23.6728C279.55 24.6235 265.394 25.3932 247.934 25.3932C230.473 25.3932 216.318 24.6235 216.318 23.6728C216.318 22.722 230.473 21.9524 247.934 21.9524C265.394 21.9524 279.55 22.722 279.55 23.6728Z" fill="url(#paint5_radial_1_597)"/>
<path d="M190.632 229.336C190.632 230.287 176.477 231.057 159.016 231.057C141.556 231.057 127.4 230.287 127.4 229.336C127.4 228.385 141.556 227.616 159.016 227.616C176.477 227.616 190.632 228.385 190.632 229.336Z" fill="url(#paint6_radial_1_597)" fill-opacity="0.1"/>
<path opacity="0.4" d="M183.208 19.1455C183.208 29.1962 175.058 37.3455 165.008 37.3455C154.957 37.3455 146.808 29.1962 146.808 19.1455C146.808 9.0947 154.957 0.945435 165.008 0.945435C175.058 0.945435 183.208 9.0947 183.208 19.1455Z" fill="url(#pattern31_1_597)"/>
<path d="M180.265 19.1455C180.265 27.5815 173.428 34.4028 165.007 34.4028C156.587 34.4028 149.75 27.5815 149.75 19.1455C149.75 10.7246 156.587 3.88831 165.007 3.88831C173.428 3.88831 180.265 10.7246 180.265 19.1455Z" fill="url(#pattern32_1_597)"/>
<text id="curren-sneak-peak-title" fontSize="20px" fill="currentColor">sneak peeks</text>
<path id="curren-sneak-peak-logo" fill="currentColor" d="M5.96425 8.50319L4.89489 10.1993L4.6379 10.6068L3.94367 11.7077C3.74332 12.0257 3.46928 12.2536 3.16296 12.3973C2.83777 12.5497 2.47908 12.6039 2.13866 12.5667C1.82626 12.532 1.51933 12.404 1.26661 12.2255L1.26478 12.228C0.996224 12.0379 0.773339 11.7747 0.651543 11.4859C0.643018 11.4695 0.555934 11.2593 0.555934 11.2502C0.372632 10.775 0.233786 10.2852 0.14183 9.78621C0.0474391 9.28055 -6.10352e-05 8.77429 -6.10352e-05 8.27473C-6.10352e-05 5.99013 0.926192 3.9206 2.42305 2.42313C3.91992 0.925654 5.988 -0.000976562 8.27227 -0.000976562C10.5559 -0.000976562 12.6246 0.925654 14.1215 2.42313C15.6183 3.9206 16.5446 5.99013 16.5446 8.27473C16.5446 8.77429 16.4965 9.28055 16.4027 9.78621C16.3101 10.2852 16.1713 10.7756 15.988 11.2502C15.988 11.2593 15.9009 11.4695 15.8924 11.4859C15.7706 11.7747 15.5477 12.0379 15.2791 12.228L15.2779 12.2255C15.0252 12.404 14.7183 12.532 14.4059 12.5661C14.0655 12.6039 13.7068 12.5503 13.3816 12.3973C13.0753 12.2536 12.8012 12.0257 12.6009 11.7077L8.76554 5.62521L8.71621 5.57891C8.59746 5.48021 8.43669 5.43087 8.27166 5.43087C8.10663 5.43087 7.94647 5.48021 7.82711 5.57891L7.77778 5.62521L5.96425 8.50319ZM10.1564 4.66081L14.032 10.8073C14.0502 10.8359 14.0728 10.856 14.0971 10.867C14.1318 10.8834 14.1763 10.8883 14.2207 10.884H14.2238C14.2469 10.8816 14.2768 10.867 14.306 10.8463V10.8426C14.3249 10.8292 14.331 10.8353 14.3346 10.8323L14.412 10.6367C14.5575 10.2626 14.6671 9.87516 14.7402 9.48038C14.8121 9.09291 14.8492 8.689 14.8492 8.27412C14.8492 6.45741 14.113 4.8119 12.923 3.62147C11.7331 2.43105 10.0888 1.69449 8.27227 1.69449C6.4563 1.69449 4.81146 2.43105 3.62152 3.62147C2.43158 4.8119 1.69533 6.4568 1.69533 8.27412C1.69533 8.689 1.73187 9.09291 1.80434 9.48038C1.87741 9.87455 1.98703 10.262 2.13136 10.6367L2.20991 10.8316C2.21357 10.8341 2.21966 10.8286 2.23853 10.842V10.8457C2.26777 10.8664 2.29761 10.881 2.32075 10.8834H2.32379C2.36886 10.8883 2.4127 10.8828 2.44741 10.8664C2.47177 10.8554 2.49491 10.8353 2.51257 10.8067L6.42342 4.60354L6.45082 4.57064C6.54156 4.46098 6.64143 4.36168 6.748 4.27334C7.18159 3.9139 7.72967 3.73418 8.27227 3.73418C8.81487 3.73418 9.36234 3.9139 9.79654 4.27334C9.90311 4.36107 10.003 4.46037 10.0937 4.57064L10.1211 4.60354L10.1564 4.66081Z" fill="white" />
<defs>
<pattern id="pattern0_1_597" patternContentUnits="objectBoundingBox" width="1" height="1">
<use xlink:href="#image0_1_597" transform="matrix(0.00277778 0 0 0.00434196 0 -0.0210352)"/>
</pattern>
<pattern id="pattern1_1_597" patternContentUnits="objectBoundingBox" width="1" height="1">
<use xlink:href="#image1_1_597" transform="scale(0.000994338 0.0015674)"/>
</pattern>
<pattern id="pattern2_1_597" patternContentUnits="objectBoundingBox" width="1" height="1">
<use xlink:href="#image0_1_597" transform="matrix(0.00725687 0 0 0.00416667 -0.806236 0)"/>
</pattern>
<pattern id="pattern3_1_597" patternContentUnits="objectBoundingBox" width="1" height="1">
<use xlink:href="#image0_1_597" transform="matrix(0.00725687 0 0 0.00416667 -0.806236 0)"/>
</pattern>
<pattern id="pattern4_1_597" patternContentUnits="objectBoundingBox" width="1" height="1">
<use xlink:href="#image0_1_597" transform="matrix(0.00726614 0 0 0.00416667 -0.807905 0)"/>
</pattern>
<pattern id="pattern5_1_597" patternContentUnits="objectBoundingBox" width="1" height="1">
<use xlink:href="#image0_1_597" transform="matrix(0.00725687 0 0 0.00416667 -0.806236 0)"/>
</pattern>
<pattern id="pattern6_1_597" patternContentUnits="objectBoundingBox" width="1" height="1">
<use xlink:href="#image0_1_597" transform="matrix(0.00725687 0 0 0.00416667 -0.806236 0)"/>
</pattern>
<pattern id="pattern7_1_597" patternContentUnits="objectBoundingBox" width="1" height="1">
<use xlink:href="#image0_1_597" transform="matrix(0.00725687 0 0 0.00416667 -0.806236 0)"/>
</pattern>
<pattern id="pattern8_1_597" patternContentUnits="objectBoundingBox" width="1" height="1">
<use xlink:href="#image0_1_597" transform="matrix(0.00725687 0 0 0.00416667 -0.806236 0)"/>
</pattern>
<pattern id="pattern9_1_597" patternContentUnits="objectBoundingBox" width="1" height="1">
<use xlink:href="#image0_1_597" transform="matrix(0.00726614 0 0 0.00416667 -0.807905 0)"/>
</pattern>
<pattern id="pattern10_1_597" patternContentUnits="objectBoundingBox" width="1" height="1">
<use xlink:href="#image0_1_597" transform="matrix(0.00725688 0 0 0.00416667 -0.806238 0)"/>
</pattern>
<pattern id="pattern11_1_597" patternContentUnits="objectBoundingBox" width="1" height="1">
<use xlink:href="#image0_1_597" transform="matrix(0.00725688 0 0 0.00416667 -0.806238 0)"/>
</pattern>
<pattern id="pattern12_1_597" patternContentUnits="objectBoundingBox" width="1" height="1">
<use xlink:href="#image0_1_597" transform="matrix(0.00726615 0 0 0.00416667 -0.807907 0)"/>
</pattern>
<pattern id="pattern13_1_597" patternContentUnits="objectBoundingBox" width="1" height="1">
<use xlink:href="#image0_1_597" transform="matrix(0.00725688 0 0 0.00416667 -0.806238 0)"/>
</pattern>
<pattern id="pattern14_1_597" patternContentUnits="objectBoundingBox" width="1" height="1">
<use xlink:href="#image0_1_597" transform="matrix(0.00725688 0 0 0.00416667 -0.806238 0)"/>
</pattern>
<pattern id="pattern15_1_597" patternContentUnits="objectBoundingBox" width="1" height="1">
<use xlink:href="#image0_1_597" transform="matrix(0.00725688 0 0 0.00416667 -0.806238 0)"/>
</pattern>
<pattern id="pattern16_1_597" patternContentUnits="objectBoundingBox" width="1" height="1">
<use xlink:href="#image0_1_597" transform="matrix(0.00725688 0 0 0.00416667 -0.806238 0)"/>
</pattern>
<pattern id="pattern17_1_597" patternContentUnits="objectBoundingBox" width="1" height="1">
<use xlink:href="#image0_1_597" transform="matrix(0.00726615 0 0 0.00416667 -0.807907 0)"/>
</pattern>
<pattern id="pattern18_1_597" patternContentUnits="objectBoundingBox" width="1" height="1">
<use xlink:href="#image0_1_597" transform="matrix(0.00277778 0 0 0.00483193 0 -0.0798321)"/>
</pattern>
<pattern id="pattern19_1_597" patternContentUnits="objectBoundingBox" width="1" height="1">
<use xlink:href="#image0_1_597" transform="matrix(0.00277778 0 0 0.00483193 0 -0.0798316)"/>
</pattern>
<pattern id="pattern20_1_597" patternContentUnits="objectBoundingBox" width="1" height="1">
<use xlink:href="#image0_1_597" transform="matrix(0.00277778 0 0 0.00483193 0 -0.0798316)"/>
</pattern>
<pattern id="pattern21_1_597" patternContentUnits="objectBoundingBox" width="1" height="1">
<use xlink:href="#image0_1_597" transform="matrix(0.00277778 0 0 0.00483777 0 -0.080532)"/>
</pattern>
<pattern id="pattern22_1_597" patternContentUnits="objectBoundingBox" width="1" height="1">
<use xlink:href="#image0_1_597" transform="matrix(0.00277778 0 0 0.00483193 0 -0.0798316)"/>
</pattern>
<pattern id="pattern23_1_597" patternContentUnits="objectBoundingBox" width="1" height="1">
<use xlink:href="#image0_1_597" transform="matrix(0.00277778 0 0 0.00483193 0 -0.0798321)"/>
</pattern>
<pattern id="pattern24_1_597" patternContentUnits="objectBoundingBox" width="1" height="1">
<use xlink:href="#image0_1_597" transform="matrix(0.00277778 0 0 0.00483193 0 -0.0798316)"/>
</pattern>
<pattern id="pattern25_1_597" patternContentUnits="objectBoundingBox" width="1" height="1">
<use xlink:href="#image0_1_597" transform="matrix(0.00277778 0 0 0.00483193 0 -0.0798316)"/>
</pattern>
<pattern id="pattern26_1_597" patternContentUnits="objectBoundingBox" width="1" height="1">
<use xlink:href="#image0_1_597" transform="matrix(0.00277778 0 0 0.00483193 0 -0.0798316)"/>
</pattern>
<pattern id="pattern27_1_597" patternContentUnits="objectBoundingBox" width="1" height="1">
<use xlink:href="#image0_1_597" transform="matrix(0.00277778 0 0 0.00483193 0 -0.0798316)"/>
</pattern>
<pattern id="pattern28_1_597" patternContentUnits="objectBoundingBox" width="1" height="1">
<use xlink:href="#image0_1_597" transform="matrix(0.00277778 0 0 0.00483193 0 -0.0798316)"/>
</pattern>
<pattern id="pattern29_1_597" patternContentUnits="objectBoundingBox" width="1" height="1">
<use xlink:href="#image0_1_597" transform="matrix(0.00277778 0 0 0.00483193 0 -0.0798316)"/>
</pattern>
<pattern id="pattern30_1_597" patternContentUnits="objectBoundingBox" width="1" height="1">
<use xlink:href="#image0_1_597" transform="matrix(0.00277778 0 0 0.0211182 0 -2.03418)"/>
</pattern>
<pattern id="pattern31_1_597" patternContentUnits="objectBoundingBox" width="1" height="1">
<use xlink:href="#image0_1_597" transform="translate(-0.25) scale(0.00416667)"/>
</pattern>
<pattern id="pattern32_1_597" patternContentUnits="objectBoundingBox" width="1" height="1">
<use xlink:href="#image0_1_597" transform="translate(-0.25) scale(0.00416667)"/>
</pattern>
<radialGradient id="paint0_radial_1_597" cx="0" cy="0" r="1" gradientUnits="userSpaceOnUse" gradientTransform="translate(166.07 57.0866) scale(222.492 256.446)">
<stop stop-color="#6804A1"/>
<stop offset="0.0381" stop-color="#63049B"/>
<stop offset="0.3268" stop-color="#3E0275"/>
<stop offset="0.5929" stop-color="#230159"/>
<stop offset="0.8258" stop-color="#130048"/>
<stop offset="1" stop-color="#0D0042"/>
</radialGradient>
<linearGradient id="paint1_linear_1_597" x1="47.1471" y1="38.6983" x2="240.565" y2="38.6983" gradientUnits="userSpaceOnUse">
<stop stop-color="#06F0F6"/>
<stop offset="0.5108" stop-color="#0500E0"/>
<stop offset="0.5628" stop-color="#0A01E1"/>
<stop offset="0.627" stop-color="#1904E2"/>
<stop offset="0.6976" stop-color="#3308E6"/>
<stop offset="0.7728" stop-color="#560EEA"/>
<stop offset="0.8517" stop-color="#8316EF"/>
<stop offset="0.9324" stop-color="#B920F6"/>
<stop offset="1" stop-color="#EC29FC"/>
</linearGradient>
<linearGradient id="paint2_linear_1_597" x1="127.58" y1="287.663" x2="182.375" y2="195.282" gradientUnits="userSpaceOnUse">
<stop stop-color="#0500E0"/>
<stop offset="0.1063" stop-color="#0A01E1"/>
<stop offset="0.2375" stop-color="#1904E2"/>
<stop offset="0.3819" stop-color="#3308E6"/>
<stop offset="0.5356" stop-color="#560EEA"/>
<stop offset="0.6969" stop-color="#8316EF"/>
<stop offset="0.8618" stop-color="#B920F6"/>
<stop offset="1" stop-color="#EC29FC"/>
</linearGradient>
<radialGradient id="paint3_radial_1_597" cx="0" cy="0" r="1" gradientUnits="userSpaceOnUse" gradientTransform="translate(11.7386 126.036) rotate(90) scale(48.2751 1.7033)">
<stop stop-color="white"/>
<stop offset="1" stop-color="white" stop-opacity="0"/>
</radialGradient>
<radialGradient id="paint4_radial_1_597" cx="0" cy="0" r="1" gradientUnits="userSpaceOnUse" gradientTransform="translate(318.59 57.9399) rotate(90) scale(31.6108 1.71959)">
<stop stop-color="white"/>
<stop offset="1" stop-color="white" stop-opacity="0"/>
</radialGradient>
<radialGradient id="paint5_radial_1_597" cx="0" cy="0" r="1" gradientUnits="userSpaceOnUse" gradientTransform="translate(247.939 23.6747) scale(31.6134 1.71973)">
<stop stop-color="white"/>
<stop offset="1" stop-color="white" stop-opacity="0"/>
</radialGradient>
<radialGradient id="paint6_radial_1_597" cx="0" cy="0" r="1" gradientUnits="userSpaceOnUse" gradientTransform="translate(159.01 229.341) scale(31.6134 1.71973)">
<stop stop-color="white"/>
<stop offset="1" stop-color="white" stop-opacity="0"/>
</radialGradient>
<image id="image0_1_597" width="360" height="240" preserveAspectRatio="none" xlink:href="./texture.png"/>

<image id="image1_1_597" width="1006" height="638" preserveAspectRatio="none" xlink:href="./game(2).jpg"/>
</defs>
</svg>
