<svg width="28" height="29" viewBox="0 0 28 29" fill="none" xmlns="http://www.w3.org/2000/svg">
<circle cx="14" cy="14.2139" r="13.5" stroke="#D4D4D8"/>
<path fill-rule="evenodd" clip-rule="evenodd" d="M14.6068 7.44043C11.0159 7.44043 8.12695 10.3294 8.12695 13.9203C8.12695 16.7823 9.98992 19.2122 12.5549 20.0762C12.8789 20.1302 12.9869 19.9412 12.9869 19.7522C12.9869 19.5902 12.9869 19.1852 12.9869 18.6452C11.1779 19.0502 10.7999 17.7813 10.7999 17.7813C10.5029 17.0253 10.0709 16.8363 10.0709 16.8363C9.47693 16.4313 10.1249 16.4313 10.1249 16.4313C10.7729 16.4853 11.1239 17.1063 11.1239 17.1063C11.6909 18.1053 12.6359 17.8083 13.0139 17.6463C13.0679 17.2143 13.2299 16.9443 13.4189 16.7823C11.9879 16.6203 10.4759 16.0533 10.4759 13.5693C10.4759 12.8673 10.7189 12.2734 11.1509 11.8414C11.0969 11.6794 10.8539 11.0314 11.2049 10.1134C11.2049 10.1134 11.7449 9.95139 12.9869 10.7884C13.4999 10.6534 14.0669 10.5724 14.6068 10.5724C15.1468 10.5724 15.7138 10.6534 16.2268 10.7884C17.4688 9.95139 18.0088 10.1134 18.0088 10.1134C18.3598 11.0044 18.1438 11.6524 18.0628 11.8414C18.4678 12.3004 18.7378 12.8673 18.7378 13.5693C18.7378 16.0533 17.2258 16.5933 15.7678 16.7553C16.0108 16.9443 16.1998 17.3493 16.1998 17.9433C16.1998 18.8072 16.1998 19.5092 16.1998 19.7252C16.1998 19.8872 16.3078 20.1032 16.6588 20.0492C19.2238 19.2122 21.0867 16.7823 21.0867 13.9203C21.0867 10.3294 18.1978 7.44043 14.6068 7.44043Z" fill="white"/>
</svg>
