<svg width="28" height="29" viewBox="0 0 28 29" fill="none" xmlns="http://www.w3.org/2000/svg">
<circle cx="14" cy="14.2139" r="13.5" stroke="#D4D4D8"/>
<path d="M14.0008 8.66107C15.8095 8.66107 16.0237 8.66785 16.7382 8.70043C17.1678 8.70569 17.5933 8.78457 17.9962 8.93366C18.2884 9.04635 18.5538 9.21898 18.7753 9.44043C18.9967 9.66188 19.1694 9.92726 19.282 10.2195C19.4311 10.6224 19.51 11.0479 19.5153 11.4775C19.5475 12.192 19.5546 12.4062 19.5546 14.2149C19.5546 16.0237 19.5479 16.2378 19.5153 16.9524C19.51 17.382 19.4311 17.8075 19.282 18.2104C19.1694 18.5026 18.9967 18.768 18.7753 18.9895C18.5538 19.2109 18.2884 19.3835 17.9962 19.4962C17.5933 19.6453 17.1678 19.7242 16.7382 19.7295C16.024 19.7617 15.8098 19.7688 14.0008 19.7688C12.1917 19.7688 11.9775 19.762 11.2633 19.7295C10.8337 19.7242 10.4082 19.6453 10.0053 19.4962C9.71307 19.3835 9.44769 19.2109 9.22624 18.9895C9.00479 18.768 8.83216 18.5026 8.71947 18.2104C8.57038 17.8075 8.4915 17.382 8.48624 16.9524C8.45398 16.2378 8.44689 16.0237 8.44689 14.2149C8.44689 12.4062 8.45366 12.192 8.48624 11.4775C8.4915 11.0479 8.57038 10.6224 8.71947 10.2195C8.83216 9.92726 9.00479 9.66188 9.22624 9.44043C9.44769 9.21898 9.71307 9.04635 10.0053 8.93366C10.4082 8.78457 10.8337 8.70569 11.2633 8.70043C11.9779 8.66817 12.192 8.66107 14.0008 8.66107ZM14.0008 7.44043C12.162 7.44043 11.9304 7.44817 11.2079 7.48107C10.6456 7.49226 10.0893 7.59871 9.56269 7.79591C9.11092 7.96613 8.70172 8.23287 8.36366 8.57753C8.01869 8.91571 7.75172 9.32514 7.5814 9.7772C7.3842 10.3038 7.27775 10.8601 7.26656 11.4224C7.2343 12.1443 7.22656 12.3759 7.22656 14.2146C7.22656 16.0533 7.2343 16.2849 7.26721 17.0075C7.27839 17.5698 7.38485 18.126 7.58205 18.6527C7.75218 19.1047 8.01892 19.5141 8.36366 19.8524C8.70191 20.1971 9.11133 20.4638 9.56334 20.634C10.09 20.8312 10.6463 20.9376 11.2085 20.9488C11.9311 20.9811 12.1617 20.9895 14.0014 20.9895C15.8411 20.9895 16.0717 20.9817 16.7943 20.9488C17.3565 20.9376 17.9128 20.8312 18.4395 20.634C18.8893 20.4596 19.2978 20.1933 19.6389 19.852C19.98 19.5107 20.246 19.102 20.4201 18.652C20.6173 18.1254 20.7238 17.5691 20.735 17.0069C20.7672 16.2849 20.775 16.0533 20.775 14.2146C20.775 12.3759 20.7672 12.1443 20.7343 11.4217C20.7231 10.8595 20.6167 10.3032 20.4195 9.77656C20.2493 9.32455 19.9826 8.91513 19.6379 8.57688C19.2996 8.23215 18.8902 7.9654 18.4382 7.79527C17.9115 7.59807 17.3553 7.49161 16.793 7.48043C16.0711 7.44817 15.8395 7.44043 14.0008 7.44043Z" fill="white"/>
<path d="M14.0021 10.7373C13.3141 10.7373 12.6416 10.9413 12.0695 11.3236C11.4974 11.7058 11.0515 12.2491 10.7882 12.8848C10.5249 13.5204 10.4561 14.2199 10.5903 14.8947C10.7245 15.5695 11.0558 16.1893 11.5423 16.6758C12.0288 17.1623 12.6487 17.4937 13.3235 17.6279C13.9983 17.7621 14.6977 17.6932 15.3334 17.4299C15.969 17.1666 16.5123 16.7208 16.8946 16.1487C17.2768 15.5766 17.4809 14.904 17.4809 14.216C17.4809 13.2934 17.1144 12.4086 16.462 11.7562C15.8096 11.1038 14.9248 10.7373 14.0021 10.7373ZM14.0021 16.4741C13.5555 16.4741 13.119 16.3416 12.7476 16.0935C12.3763 15.8454 12.0869 15.4927 11.916 15.0801C11.7451 14.6675 11.7003 14.2135 11.7875 13.7755C11.8746 13.3375 12.0897 12.9351 12.4055 12.6193C12.7213 12.3035 13.1236 12.0885 13.5616 12.0013C13.9996 11.9142 14.4537 11.9589 14.8663 12.1298C15.2789 12.3007 15.6315 12.5902 15.8797 12.9615C16.1278 13.3328 16.2602 13.7694 16.2602 14.216C16.2602 14.8149 16.0223 15.3892 15.5988 15.8127C15.1754 16.2362 14.601 16.4741 14.0021 16.4741Z" fill="white"/>
<path d="M17.6176 11.4119C18.0665 11.4119 18.4305 11.048 18.4305 10.599C18.4305 10.1501 18.0665 9.78613 17.6176 9.78613C17.1686 9.78613 16.8047 10.1501 16.8047 10.599C16.8047 11.048 17.1686 11.4119 17.6176 11.4119Z" fill="white"/>
</svg>
