<svg width="133" height="22" viewBox="0 0 133 22" fill="none" xmlns="http://www.w3.org/2000/svg">
<path fill-rule="evenodd" clip-rule="evenodd" d="M0 20.8564L4.63291 0H12.9036L13.2812 11.6511L18.8487 0H27.1391L22.4873 20.8564H16.4823L18.9675 9.64269L13.3811 20.8564H9.06604L8.84733 9.64269L6.06395 20.8564H0ZM27.8557 3.39938H33.4422L34.1974 0H28.5906L27.8557 3.39938ZM29.5653 20.8769L23.9387 20.8564L27.3782 5.40784H33.0048L29.5653 20.8769ZM50.8795 5.40784H55.9098L55.4724 7.3164C56.1686 6.46125 57.0033 5.92471 58.0575 5.56676C58.9035 5.28492 59.7901 5.14381 60.6819 5.14903L59.3894 10.1792C59.0715 10.1792 55.1749 9.42323 53.9619 15.3684L52.7094 20.8753H47.3999L50.8795 5.40784Z" fill="white"/>
<path fill-rule="evenodd" clip-rule="evenodd" d="M47.9373 15.1507C47.9373 15.2695 46.168 21.4727 38.3937 21.3145C27.9746 21.0958 30.6793 4.39479 42.509 4.99112C49.2291 5.32864 48.8916 10.9158 48.8318 11.155H43.0259C43.1053 10.9363 43.3044 8.62965 41.4548 8.66976C38.0153 8.76965 35.5695 17.2984 39.3669 17.3786C41.1166 17.4384 41.9324 15.4103 42.0913 15.1522H47.9373V15.1507ZM97.8224 21.3743C86.5096 20.8968 89.909 4.23512 101.521 4.7921C112.436 5.32865 109.334 21.8314 97.8224 21.3743ZM101.142 8.42987C97.385 7.67462 94.5812 16.7013 98.1615 17.4369C102.137 18.2723 104.802 9.1662 101.142 8.42987Z" fill="white"/>
<path fill-rule="evenodd" clip-rule="evenodd" d="M119.018 3.12179C117.466 3.12179 117.169 3.71812 116.91 4.89111L116.81 5.40798H120.091L120.907 1.67032H126.035L125.24 5.40798H127.884L127.11 8.96704H124.464L123.013 15.7469C122.954 16.1245 122.814 16.462 122.954 16.8798C123.172 17.4958 125.379 17.2385 125.379 17.2385L124.525 20.7779C124.525 20.7779 120.031 21.2947 118.519 20.2406C117.843 19.7835 117.108 18.8292 117.566 16.7814L119.295 8.98748L116.213 8.9678L113.609 20.8573H108.081L110.666 8.9678H107.822L108.618 5.40873H111.381C111.878 3.42071 112.315 2.06838 113.548 1.03464C115.239 -0.337378 119.633 0.19917 119.633 0.19917L119.018 3.12179ZM69.3907 15.5683L79.8878 15.5486C79.8878 15.5486 78.9933 17.8749 82.2943 17.8953C84.5805 17.8953 85.475 15.2906 82.3934 14.754C80.9821 14.4952 75.5144 13.5803 76.1312 9.3651C76.6488 5.90593 80.2465 4.69284 84.1839 4.75262C92.2367 4.85176 90.7261 9.58456 90.8245 9.9024H85.456C85.456 9.9024 86.0327 7.91438 83.6073 7.91438C81.4005 7.91438 80.8625 9.9024 83.4075 10.439C86.5102 11.1155 90.0693 11.2744 90.2668 15.2709C90.3258 16.3849 89.6712 21.5929 81.5579 21.4347C74.122 21.2758 73.6059 17.7765 73.8041 16.1465C72.4518 18.9896 69.0713 21.515 64.5587 21.356C53.2459 20.9981 56.6854 4.23651 68.2767 4.81392C73.5461 5.07198 75.5545 9.06845 74.9173 13.0051C74.8182 13.7014 74.7592 13.8005 74.5594 13.8603L69.3907 15.5683ZM67.859 8.41006C64.1403 7.67449 61.3576 16.6611 64.9159 17.4171C68.8541 18.2329 71.4983 9.1464 67.859 8.41006ZM130.987 5.3883C133.671 5.3883 133.671 9.38477 130.987 9.38477C128.303 9.38477 128.303 5.3883 130.987 5.3883ZM130.987 5.74625C128.74 5.74625 128.74 9.00715 130.987 9.00715C133.253 9.00715 133.253 5.74625 130.987 5.74625ZM131.345 7.6147L131.742 8.41006H131.265L130.947 7.6147H130.667L130.549 8.46984H130.131L130.469 6.34258H131.443C131.443 6.34258 131.98 6.48182 131.94 6.99869C131.881 7.6147 131.385 7.6147 131.345 7.6147ZM131.244 6.62107H130.848L130.748 7.3173H131.145C131.145 7.3173 131.542 7.37708 131.582 6.97902C131.582 6.62107 131.244 6.62107 131.244 6.62107Z" fill="white"/>
</svg>
