<svg width="146" height="26" viewBox="0 0 146 26" fill="none" xmlns="http://www.w3.org/2000/svg">
<path d="M29.2977 0.210449L24.1378 20.2568L44.1841 25.4168L49.3441 5.37044L29.2977 0.210449ZM38.2022 15.2795L34.2751 14.2749L35.2797 10.3478L39.2068 11.3524L38.2022 15.2795Z" fill="white"/>
<path d="M14.2744 2.448C19.48 2.448 21.8089 5.55313 21.8089 8.65825C21.8089 10.5761 20.9869 12.1744 19.4344 13.2246C21.6719 15.7361 22.9961 19.1609 23.4528 23.1336H13.9547C13.5438 17.654 12.4022 15.4621 9.93633 15.4621V23.1336H0.757935V2.448H14.2744ZM9.93633 10.7131H10.1646C11.8542 10.7131 12.6305 10.1195 12.6305 8.74958C12.6305 7.88197 12.1738 6.69472 10.4843 6.69472H9.93633V10.7131Z" fill="white"/>
<path d="M64.4588 2.448C71.1713 2.448 72.4956 5.82711 72.4956 8.24728C72.4956 9.93684 71.9019 11.4894 69.8014 12.6767C72.4042 14.0466 73.0435 15.6448 73.0435 17.4257C73.0435 20.6221 70.806 23.1336 65.9657 23.1336H51.5359V2.448H64.4588ZM60.6687 10.6675H60.897C62.9062 10.6675 63.6368 10.1195 63.6368 8.65825C63.6368 7.51666 63.0889 6.64905 61.2166 6.64905H60.6687V10.6675ZM60.6687 18.6129H60.9427C63.0432 18.6129 63.8651 18.0193 63.8651 16.4667C63.8651 15.0968 63.2258 14.1379 61.308 14.1379H60.6687V18.6129Z" fill="white"/>
<path d="M75.8289 2.448H85.0073V17.928H93.0441V23.1336H75.8289V2.448Z" fill="white"/>
<path d="M95.8296 2.448V23.1336H116.515V2.448H95.8296ZM108.204 14.8228H104.14V10.8044H108.159V14.8228H108.204Z" fill="white"/>
<path d="M118.981 2.448H128.981L132.041 6.23808L134.963 2.448H144.918L137.064 12.631L145.42 23.1793H135.374L132.087 19.0696L128.936 23.1793H118.981L127.064 12.7223L118.981 2.448Z" fill="white"/>
</svg>
