<svg width="86" height="29" viewBox="0 0 86 29" fill="none" xmlns="http://www.w3.org/2000/svg">
<path fill-rule="evenodd" clip-rule="evenodd" d="M85.758 9.39678V23.3423L78.0367 28.6835H73.2899V26.3095L69.7289 28.6835H65.5748V26.3095L62.9042 28.6835H55.1896L52.8162 26.3095L52.2224 28.6835L45.4128 28.6653L42.7276 26.3095L42.431 28.6835L34.7165 28.6653L34.4199 26.3095L32.3431 28.6653L20.4743 28.6835L18.1003 27.4965V28.6835H11.5722L4.45078 24.2327L0 19.7819V0.199219H9.19816L13.6489 4.65H33.8261V0.199219H50.4428V4.65H54.597V7.024L56.971 4.65H62.0156L66.4664 0.199219H75.9611V4.65H81.0057L85.758 9.39678ZM11.5722 6.72618H7.41797V2.2754H2.07679V18.8921L5.34058 22.4525H11.5722V16.8147H7.41797V12.068H11.5722V6.72618ZM33.8261 6.72618H28.4849V16.8154H26.4081V6.72618H21.3635V16.8154H19.2867V6.72618H13.6489V22.4525H30.2657L33.8261 18.8921V6.72618ZM40.9475 6.72618H35.9029V22.4525H40.9475V6.72618ZM40.9475 2.2754H35.9029V4.64939H40.9475V2.2754ZM52.5196 6.72618H48.3654V2.2754H43.0248V18.8921L46.2886 22.4525H52.5184V16.8147H48.3642V12.068H52.5184L52.5196 6.72618ZM66.1686 6.72618H57.8608L54.597 9.98997V18.8921L58.1574 22.4525H66.168V16.8147H60.2336V12.068H66.168L66.1686 6.72618ZM83.6751 9.98997L80.1147 6.72618H73.8837V2.2754H68.246V22.4525H73.8837V12.0668H78.0379V22.4519H83.6757L83.6751 9.98997Z" fill="white"/>
</svg>
