<svg width="28" height="29" viewBox="0 0 28 29" fill="none" xmlns="http://www.w3.org/2000/svg">
<circle cx="14" cy="14.2139" r="13.5" stroke="#D4D4D8"/>
<path d="M20.2071 11.197C19.7881 11.3832 19.3458 11.4996 18.8802 11.5694C19.3458 11.2901 19.7183 10.8478 19.8812 10.3124C19.4389 10.5684 18.9501 10.7547 18.4146 10.8711C17.9956 10.4288 17.3904 10.1494 16.7386 10.1494C15.4815 10.1494 14.4572 11.1737 14.4572 12.4308C14.4572 12.617 14.4805 12.7799 14.5271 12.9429C12.6415 12.8498 10.9421 11.9419 9.80141 10.5452C9.61518 10.8943 9.49878 11.2668 9.49878 11.6858C9.49878 12.4773 9.89453 13.1757 10.5231 13.5947C10.1506 13.5714 9.80141 13.4783 9.4755 13.3154V13.3386C9.4755 14.456 10.267 15.3872 11.3145 15.5967C11.1283 15.6433 10.9188 15.6665 10.7093 15.6665C10.5696 15.6665 10.4067 15.6433 10.267 15.62C10.5696 16.5279 11.4077 17.203 12.4087 17.203C11.6172 17.8082 10.6395 18.1807 9.56862 18.1807C9.38239 18.1807 9.19616 18.1807 9.0332 18.1574C10.0575 18.8092 11.2447 19.1817 12.5483 19.1817C16.7618 19.1817 19.0665 15.6898 19.0665 12.6635C19.0665 12.5704 19.0665 12.454 19.0665 12.3609C19.5088 12.0583 19.9045 11.6626 20.2071 11.197Z" fill="white"/>
</svg>
