<svg width="19" height="18" viewBox="0 0 19 18" fill="none" xmlns="http://www.w3.org/2000/svg" xmlns:xlink="http://www.w3.org/1999/xlink">
<path d="M6.30576 0.0709305C6.19399 0.110849 6.05826 0.174719 6.00238 0.210646C5.85069 0.31044 5.60719 0.617813 5.48344 0.861315C5.37965 1.06091 5.13216 1.77944 5.06829 2.05089C5.05232 2.11476 4.98047 2.29838 4.91261 2.45406L4.78087 2.74148L4.56931 2.76942C4.44955 2.78938 4.03839 2.80135 3.65517 2.79736C2.60532 2.79337 2.19017 2.90115 1.84288 3.2684C1.44369 3.69153 1.40377 4.27434 1.71913 5.19247C1.94267 5.84314 1.98658 5.99084 2.03848 6.29422C2.06642 6.46187 2.06243 6.46986 1.87082 6.64949C1.76703 6.74929 1.57942 6.89698 1.45966 6.97682C1.33991 7.05666 1.23213 7.12851 1.22015 7.14049C1.20817 7.15246 1.10039 7.22831 0.98064 7.31214C0.298034 7.77918 -0.0332888 8.30211 0.00263779 8.86097C0.022597 9.11246 0.166303 9.49567 0.294042 9.61942C0.329969 9.65934 0.4617 9.79107 0.581455 9.91083C0.697219 10.0346 0.80899 10.1344 0.820966 10.1344C0.836933 10.1344 0.896811 10.1783 0.956688 10.2302C1.02056 10.2821 1.16826 10.3859 1.28801 10.4577C1.59538 10.6493 2.01852 11.0126 2.04247 11.1164C2.06642 11.2122 1.92671 11.8349 1.83889 12.0265C1.76703 12.1822 1.62732 12.5973 1.60337 12.7291C1.59139 12.785 1.56345 12.9366 1.5395 13.0684C1.41575 13.6951 1.67522 14.2779 2.19017 14.5374C2.51351 14.701 2.93265 14.7609 3.739 14.7569C4.12222 14.7529 4.50943 14.7649 4.60523 14.7809C4.76092 14.8088 4.78487 14.8288 4.88865 15.0403C5.00043 15.2599 5.04434 15.3836 5.19203 15.9026C5.3557 16.4774 5.60319 16.9764 5.81077 17.16C6.02633 17.3516 6.07024 17.3836 6.22991 17.4594C6.70894 17.6949 7.63105 17.3995 8.31366 16.7888C8.56913 16.5612 9.02421 16.2818 9.15194 16.2738C9.27569 16.2618 9.62697 16.4654 10.0501 16.7928C10.5411 17.172 10.8086 17.3357 11.1598 17.4674C11.3794 17.5512 11.4632 17.5632 11.7067 17.5472C12.038 17.5233 12.3574 17.3716 12.537 17.148C12.5969 17.0762 12.6688 16.9884 12.6967 16.9524C12.8524 16.7608 13.0999 16.1261 13.2596 15.5074C13.2955 15.3757 13.3713 15.1681 13.4352 15.0403C13.551 14.8168 13.5549 14.8128 13.7625 14.7849C13.8783 14.7649 14.2695 14.7529 14.6327 14.7569C15.9101 14.7609 16.4131 14.5693 16.6965 13.9665C16.7804 13.7869 16.8003 13.6831 16.8043 13.4077C16.8083 13.2201 16.7963 13.0045 16.7804 12.9247C16.7524 12.785 16.5448 12.1463 16.4131 11.783C16.3772 11.6912 16.3413 11.5555 16.3293 11.4836C16.3173 11.4118 16.2973 11.296 16.2854 11.2281C16.2654 11.1204 16.2854 11.0804 16.4011 10.9647C16.5249 10.8369 16.9121 10.5336 17.0718 10.4338C17.4989 10.1703 17.9021 9.81103 18.0977 9.52761C18.2334 9.32802 18.3452 8.9927 18.3452 8.77714C18.3452 8.59751 18.2374 8.22228 18.1615 8.13446C18.1296 8.10252 18.1056 8.05861 18.1056 8.04264C18.1056 7.92289 17.5947 7.4758 17.0279 7.09258C16.7963 6.9369 16.5329 6.73332 16.4371 6.63751C16.2694 6.46986 16.2654 6.46587 16.2934 6.2543C16.3093 6.13853 16.3812 5.8631 16.457 5.64355C16.7644 4.72941 16.8003 4.58571 16.8003 4.18652C16.8043 3.73544 16.7285 3.53984 16.457 3.26041C16.0978 2.89716 15.8103 2.82131 14.7325 2.80534C14.2735 2.80135 13.8184 2.78539 13.7226 2.76942C13.5629 2.74547 13.547 2.7295 13.4392 2.51793C13.3753 2.39418 13.2596 2.06685 13.1757 1.79142C13.044 1.34433 12.9562 1.11679 12.7725 0.733576C12.6727 0.529993 12.3893 0.246571 12.1698 0.138792C11.5431 -0.172573 10.9403 0.0270195 9.84253 0.909218C9.72278 1.00502 9.51919 1.13276 9.39145 1.19663C9.18787 1.29243 9.14396 1.30042 9.05215 1.25651C8.77272 1.13276 8.50127 0.961111 8.30567 0.781479C8.16995 0.65374 7.73883 0.354351 7.69492 0.354351C7.67097 0.354351 7.64702 0.338385 7.63903 0.322416C7.61908 0.270523 7.19993 0.0829067 7.00433 0.0389957C6.74885 -0.0208817 6.53729 -0.0128975 6.30576 0.0709305ZM11.9981 7.34806C12.2416 7.47181 12.3574 7.65543 12.3574 7.9189C12.3574 8.06659 12.3334 8.16639 12.2656 8.26219C12.1778 8.39792 8.82062 10.9527 8.57712 11.0725C8.40946 11.1523 8.1939 11.1483 8.01427 11.0565C7.79871 10.9407 6.10617 9.23221 6.03032 9.04859C5.99839 8.96476 5.97044 8.84101 5.97044 8.76916C5.97444 8.46977 6.30177 8.14244 6.60116 8.13845C6.86063 8.13845 7.01631 8.25022 7.7069 8.93682L8.38551 9.61144L9.84253 8.50969C10.6449 7.90293 11.3714 7.37601 11.4592 7.33609C11.6708 7.24028 11.7866 7.24028 11.9981 7.34806Z" fill="url(#pattern0_1_824)"/>
<path d="M11.4912 7.33993C11.4433 7.35989 10.7247 7.88682 9.89045 8.50954L8.37754 9.64722L7.70292 8.9726C7.33168 8.60136 6.97241 8.27003 6.90455 8.2381C6.53331 8.06246 6.08623 8.27802 6.02635 8.66522C5.96647 9.01252 5.99441 9.05243 6.92052 9.99052C7.39954 10.4695 7.8586 10.9126 7.94243 10.9765C8.13803 11.1202 8.43343 11.1362 8.63302 11.0124C8.91245 10.8448 12.1099 8.41773 12.2057 8.30197C12.3614 8.11834 12.3854 7.89879 12.2696 7.67126C12.2217 7.56747 12.1299 7.44771 12.07 7.40779C11.9502 7.31997 11.6269 7.28005 11.4912 7.33993Z" fill="#ECECEC"/>
<defs>
<pattern id="pattern0_1_824" patternContentUnits="objectBoundingBox" width="1" height="1">
<use xlink:href="#image0_1_824" transform="matrix(0.0039868 0 0 0.00416667 -0.217625 0)"/>
</pattern>
<image id="image0_1_824" width="360" height="240" preserveAspectRatio="none" xlink:href="./texture.png"/>
</defs>
</svg>
